<?xml version="1.0" standalone="no"?><!DOCTYPE svg PUBLIC "-//W3C//DTD SVG 1.1//EN" "http://www.w3.org/Graphics/SVG/1.1/DTD/svg11.dtd"><svg class="icon" width="200px" height="200.00px" viewBox="0 0 1024 1024" version="1.1" xmlns="http://www.w3.org/2000/svg"><path d="M851.2 464c32.8-33.6 52-76.8 52-124 0-101.6-90.4-184.8-200.8-184.8-3.2 0-6.4 0.8-9.6 0.8 3.2 4 8 9.6 11.2 14.4 16 20 27.2 40 35.2 64 48 14.4 101.6 56 101.6 104.8 0 43.2-28 83.2-70.4 100.8-16 5.6-27.2 18.4-27.2 34.4s12 29.6 28.8 34.4l8 1.6c107.2 24.8 181.6 112 181.6 214.4v28.8H904c5.6 24 8 40 8 65.6h72c22.4 0 40-16.8 40-36.8v-56.8c0-112.8-68-212-172.8-261.6z m-600 47.2l8-1.6c16.8-4.8 28.8-18.4 28.8-34.4 0-15.2-11.2-28.8-27.2-34.4-43.2-17.6-70.4-57.6-70.4-100.8 0-48.8 46.4-90.4 94.4-104.8 8.8-24 19.2-47.2 36-66.4 3.2-4 8-8 10.4-12-3.2 0-6.4-0.8-9.6-0.8-110.4 0-200.8 82.4-200.8 184.8 0 46.4 19.2 90.4 52 124C68 513.6 0 612.8 0 725.6v56.8c0 20.8 17.6 36.8 40 36.8h72c0-25.6 3.2-41.6 8-65.6H69.6v-28.8C69.6 624 144 536 251.2 511.2zM648.8 483.2c51.2-40.8 84-103.2 84-173.6C732.8 187.2 634.4 88 513.6 88c-121.6 0-220 99.2-220 220.8 0 70.4 32.8 133.6 84 173.6-135.2 54.4-230.4 187.2-230.4 342.4v73.6c0 20 16 36.8 36.8 36.8h658.4c20 0 36.8-16.8 36.8-36.8v-73.6c0-154.4-96-287.2-230.4-341.6zM368 308.8c0-80.8 65.6-146.4 145.6-146.4S659.2 228 659.2 308.8s-65.6 146.4-145.6 146.4c-80.8 0-145.6-65.6-145.6-146.4z m430.4 552H228v-36c0-158.4 128-288 285.6-288s284.8 128.8 284.8 288v36z" /></svg>