<?xml version="1.0" standalone="no"?><!DOCTYPE svg PUBLIC "-//W3C//DTD SVG 1.1//EN" "http://www.w3.org/Graphics/SVG/1.1/DTD/svg11.dtd"><svg class="icon" width="200px" height="200.00px" viewBox="0 0 1024 1024" version="1.1" xmlns="http://www.w3.org/2000/svg"><path d="M227.84 957.44c12.8 7.68 25.6 12.8 38.4 12.8 10.24 0 23.04-2.56 33.28-7.68L512 844.8l212.48 115.2c10.24 5.12 20.48 7.68 33.28 7.68s28.16-5.12 38.4-12.8c20.48-15.36 30.72-38.4 28.16-64l-40.96-248.32 179.2-179.2c17.92-17.92 23.04-43.52 15.36-66.56-7.68-23.04-28.16-40.96-53.76-43.52l-243.2-35.84-104.96-220.16C563.2 74.24 537.6 58.88 512 58.88s-51.2 15.36-61.44 38.4l-104.96 220.16L102.4 353.28c-25.6 2.56-46.08 20.48-53.76 43.52-7.68 23.04-2.56 48.64 15.36 66.56l179.2 179.2-40.96 248.32c-7.68 25.6 2.56 51.2 25.6 66.56z m-128-537.6l243.2-35.84 43.52-5.12 17.92-38.4L512 115.2l107.52 222.72 17.92 38.4 43.52 5.12 243.2 35.84-176.64 176.64-30.72 33.28 7.68 40.96 40.96 248.32-215.04-115.2-38.4-23.04-38.4 20.48-215.04 115.2 40.96-248.32 7.68-40.96-30.72-30.72-176.64-174.08z" /></svg>